<svg width="17" height="17" viewBox="0 0 17 17" fill="none" xmlns="http://www.w3.org/2000/svg">
<path d="M8.5 16.9923C7.38363 16.9926 6.27811 16.7731 5.24659 16.3462C4.21508 15.9192 3.27776 15.2933 2.48818 14.5041C0.880909 12.8968 0 10.7641 0 8.49227C0 6.22045 0.880909 4.08773 2.48818 2.48045C5.79545 -0.826818 11.1891 -0.826818 14.5118 2.48045C16.1191 4.08773 17 6.22045 17 8.49227C17 10.7641 16.1191 12.8968 14.5118 14.5041C13.7222 15.2933 12.7849 15.9192 11.7534 16.3462C10.7219 16.7731 9.61637 16.9926 8.5 16.9923ZM8.5 1.53773C6.72273 1.53773 4.94545 2.21773 3.58545 3.57773C2.27182 4.89136 1.54545 6.63773 1.54545 8.49227C1.54545 10.3468 2.27182 12.0932 3.58545 13.4068C4.89143 14.7054 6.65829 15.4343 8.5 15.4343C10.3417 15.4343 12.1086 14.7054 13.4145 13.4068C14.7282 12.0932 15.4545 10.3468 15.4545 8.49227C15.4545 6.63773 14.7282 4.89136 13.4145 3.57773C12.7704 2.93038 12.0045 2.41686 11.1611 2.06675C10.3176 1.71663 9.41323 1.53684 8.5 1.53773Z" fill="black"/>
</svg>
