<svg width="20" height="20" viewBox="0 0 20 20" fill="none" xmlns="http://www.w3.org/2000/svg">
<path d="M1.19453 10.0864C1.08227 10.0586 0.981382 9.99666 0.905726 9.90917C0.830069 9.82169 0.783356 9.71292 0.772003 9.59782C0.76065 9.48271 0.785214 9.36691 0.84232 9.26633C0.899426 9.16575 0.986274 9.08531 1.09093 9.03608L18.4309 0.823048C18.5353 0.773698 18.6523 0.757806 18.7661 0.777548C18.8798 0.79729 18.9847 0.851701 19.0663 0.933333C19.148 1.01497 19.2024 1.11983 19.2221 1.23358C19.2419 1.34732 19.226 1.46439 19.1766 1.56875L10.9636 18.9087C10.9144 19.0134 10.8341 19.1003 10.7336 19.1575C10.6331 19.2147 10.5173 19.2393 10.4022 19.2281C10.2871 19.2168 10.1783 19.1702 10.0908 19.0947C10.0032 19.0192 9.94122 18.9184 9.91325 18.8062L8.25156 12.1563C8.22684 12.0578 8.17579 11.9679 8.10387 11.8962C8.03196 11.8244 7.9419 11.7736 7.84332 11.7491L1.19453 10.0864Z" stroke="black" stroke-width="1.5" stroke-linecap="round" stroke-linejoin="round"/>
</svg>
