<svg width="20" height="22" viewBox="0 0 20 22" fill="none" xmlns="http://www.w3.org/2000/svg">
<path d="M18.3995 11.5382C17.7998 8.34465 17.501 6.74735 16.3632 5.80391C15.2284 4.86047 13.6035 4.86047 10.3546 4.86047H9.61582C6.36698 4.86047 4.74205 4.86047 3.60522 5.80391C2.4694 6.74735 2.16959 8.34465 1.56996 11.5382C0.728845 16.0293 0.307264 18.2743 1.53517 19.754C2.76205 21.2326 5.04596 21.2326 9.6148 21.2326H10.3536C14.9224 21.2326 17.2074 21.2326 18.4342 19.754C19.1464 18.8944 19.304 17.7791 19.1464 16.1163M6.91443 4.86047V3.83721C6.91443 3.02306 7.23785 2.24225 7.81354 1.66656C8.38923 1.09086 9.17004 0.767442 9.98419 0.767442C10.7983 0.767442 11.5792 1.09086 12.1548 1.66656C12.7305 2.24225 13.054 3.02306 13.054 3.83721V4.86047" stroke="#191C1B" stroke-width="1.5" stroke-linecap="round"/>
</svg>
