<svg width="24" height="24" viewBox="0 0 24 24" fill="none" xmlns="http://www.w3.org/2000/svg">
<path d="M5.25 12C5.6875 12 6.08203 12.0977 6.43359 12.293C6.78516 12.4883 7.10547 12.7539 7.39453 13.0898C7.68359 13.4258 7.92188 13.8008 8.10938 14.2148C8.29688 14.6289 8.46484 15.0625 8.61328 15.5156C8.76172 15.9688 8.85938 16.4062 8.90625 16.8281C8.95312 17.25 8.98438 17.6406 9 18C9 18.3516 8.96875 18.7422 8.90625 19.1719C8.84375 19.6016 8.74609 20.0391 8.61328 20.4844C8.48047 20.9297 8.31641 21.3633 8.12109 21.7852C7.92578 22.207 7.68359 22.582 7.39453 22.9102C7.10547 23.2383 6.78906 23.5 6.44531 23.6953C6.10156 23.8906 5.70312 23.9922 5.25 24C4.97656 24 4.72656 23.9336 4.5 23.8008C4.27344 23.9336 4.02344 24 3.75 24C3.3125 24 2.91797 23.9023 2.56641 23.707C2.21484 23.5117 1.89453 23.2461 1.60547 22.9102C1.31641 22.5742 1.07812 22.1992 0.890625 21.7852C0.703125 21.3711 0.535156 20.9375 0.386719 20.4844C0.238281 20.0312 0.140625 19.5938 0.09375 19.1719C0.046875 18.75 0.015625 18.3594 0 18C0 17.6484 0.03125 17.2578 0.09375 16.8281C0.15625 16.3984 0.253906 15.9609 0.386719 15.5156C0.519531 15.0703 0.683594 14.6367 0.878906 14.2148C1.07422 13.793 1.31641 13.418 1.60547 13.0898C1.89453 12.7617 2.21094 12.5 2.55469 12.3047C2.89844 12.1094 3.29688 12.0078 3.75 12C4.02344 12 4.27344 12.0664 4.5 12.1992C4.72656 12.0664 4.97656 12 5.25 12ZM1.48828 18C1.48828 18.3516 1.51562 18.707 1.57031 19.0664C1.625 19.4258 1.70703 19.7773 1.81641 20.1211C1.92578 20.4648 2.06641 20.8008 2.23828 21.1289C2.41016 21.457 2.60938 21.7539 2.83594 22.0195C2.96094 22.168 3.09375 22.2852 3.23438 22.3711C3.375 22.457 3.54688 22.5 3.75 22.5V13.5C3.55469 13.5 3.38672 13.543 3.24609 13.6289C3.10547 13.7148 2.96875 13.832 2.83594 13.9805C2.60938 14.2539 2.41016 14.5508 2.23828 14.8711C2.06641 15.1914 1.92578 15.5234 1.81641 15.8672C1.70703 16.2109 1.625 16.5664 1.57031 16.9336C1.51562 17.3008 1.48828 17.6562 1.48828 18ZM5.25 22.5C5.44531 22.5 5.61328 22.457 5.75391 22.3711C5.89453 22.2852 6.03125 22.168 6.16406 22.0195C6.39062 21.7539 6.58594 21.4609 6.75 21.1406C6.91406 20.8203 7.05469 20.4844 7.17188 20.1328C7.28906 19.7812 7.375 19.4258 7.42969 19.0664C7.48438 18.707 7.51172 18.3516 7.51172 18C7.51172 17.6484 7.48438 17.293 7.42969 16.9336C7.375 16.5742 7.29297 16.2227 7.18359 15.8789C7.07422 15.5352 6.93359 15.1992 6.76172 14.8711C6.58984 14.543 6.39062 14.2461 6.16406 13.9805C6.03906 13.832 5.90625 13.7148 5.76562 13.6289C5.625 13.543 5.45312 13.5 5.25 13.5V22.5ZM24 18.75C24 19.0234 23.9336 19.2734 23.8008 19.5C23.9336 19.7266 24 19.9766 24 20.25C24 20.6875 23.9023 21.082 23.707 21.4336C23.5117 21.7852 23.2461 22.1055 22.9102 22.3945C22.5742 22.6836 22.1992 22.9219 21.7852 23.1094C21.3711 23.2969 20.9375 23.4648 20.4844 23.6133C20.0312 23.7617 19.5938 23.8594 19.1719 23.9062C18.75 23.9531 18.3594 23.9844 18 24C17.6484 24 17.2578 23.9688 16.8281 23.9062C16.3984 23.8438 15.9609 23.7461 15.5156 23.6133C15.0703 23.4805 14.6367 23.3164 14.2148 23.1211C13.793 22.9258 13.418 22.6836 13.0898 22.3945C12.7617 22.1055 12.5 21.7891 12.3047 21.4453C12.1094 21.1016 12.0078 20.7031 12 20.25C12 19.9766 12.0664 19.7266 12.1992 19.5C12.0664 19.2734 12 19.0234 12 18.75C12 18.3125 12.0977 17.918 12.293 17.5664C12.4883 17.2148 12.7539 16.8945 13.0898 16.6055C13.4258 16.3164 13.8008 16.0781 14.2148 15.8906C14.6289 15.7031 15.0625 15.5352 15.5156 15.3867C15.9688 15.2383 16.4062 15.1406 16.8281 15.0938C17.25 15.0469 17.6406 15.0156 18 15C18.3516 15 18.7422 15.0312 19.1719 15.0938C19.6016 15.1562 20.0391 15.2539 20.4844 15.3867C20.9297 15.5195 21.3633 15.6836 21.7852 15.8789C22.207 16.0742 22.582 16.3164 22.9102 16.6055C23.2383 16.8945 23.5 17.2109 23.6953 17.5547C23.8906 17.8984 23.9922 18.2969 24 18.75ZM18 16.4883C17.6484 16.4883 17.293 16.5156 16.9336 16.5703C16.5742 16.625 16.2227 16.707 15.8789 16.8164C15.5352 16.9258 15.1992 17.0664 14.8711 17.2383C14.543 17.4102 14.2461 17.6094 13.9805 17.8359C13.832 17.9609 13.7148 18.0938 13.6289 18.2344C13.543 18.375 13.5 18.5469 13.5 18.75H22.5C22.5 18.5547 22.457 18.3867 22.3711 18.2461C22.2852 18.1055 22.168 17.9688 22.0195 17.8359C21.7461 17.6094 21.4492 17.4141 21.1289 17.25C20.8086 17.0859 20.4766 16.9453 20.1328 16.8281C19.7891 16.7109 19.4336 16.625 19.0664 16.5703C18.6992 16.5156 18.3438 16.4883 18 16.4883ZM18 22.5117C18.3516 22.5117 18.707 22.4844 19.0664 22.4297C19.4258 22.375 19.7773 22.293 20.1211 22.1836C20.4648 22.0742 20.8008 21.9336 21.1289 21.7617C21.457 21.5898 21.7539 21.3906 22.0195 21.1641C22.168 21.0391 22.2852 20.9062 22.3711 20.7656C22.457 20.625 22.5 20.4531 22.5 20.25H13.5C13.5 20.4453 13.543 20.6133 13.6289 20.7539C13.7148 20.8945 13.832 21.0312 13.9805 21.1641C14.2461 21.3906 14.5391 21.5898 14.8594 21.7617C15.1797 21.9336 15.5156 22.0742 15.8672 22.1836C16.2188 22.293 16.5742 22.375 16.9336 22.4297C17.293 22.4844 17.6484 22.5117 18 22.5117ZM13.5 11.8008C13.2734 11.9336 13.0234 12 12.75 12C12.3125 12 11.918 11.9023 11.5664 11.707C11.2148 11.5117 10.8945 11.2461 10.6055 10.9102C10.3164 10.5742 10.0781 10.1992 9.89062 9.78516C9.70312 9.37109 9.53516 8.9375 9.38672 8.48438C9.23828 8.03125 9.14062 7.59375 9.09375 7.17188C9.04688 6.75 9.01562 6.35938 9 6C9 5.64844 9.03125 5.25781 9.09375 4.82812C9.15625 4.39844 9.25391 3.96094 9.38672 3.51562C9.51953 3.07031 9.68359 2.63672 9.87891 2.21484C10.0742 1.79297 10.3164 1.41797 10.6055 1.08984C10.8945 0.761719 11.2109 0.5 11.5547 0.304688C11.8984 0.109375 12.2969 0.0078125 12.75 0C13.0234 0 13.2734 0.0664062 13.5 0.199219C13.7266 0.0664062 13.9766 0 14.25 0C14.6875 0 15.082 0.0976563 15.4336 0.292969C15.7852 0.488281 16.1055 0.753906 16.3945 1.08984C16.6836 1.42578 16.9219 1.80078 17.1094 2.21484C17.2969 2.62891 17.4648 3.0625 17.6133 3.51562C17.7617 3.96875 17.8594 4.40625 17.9062 4.82812C17.9531 5.25 17.9844 5.64062 18 6C18 6.35156 17.9688 6.74219 17.9062 7.17188C17.8438 7.60156 17.7461 8.03906 17.6133 8.48438C17.4805 8.92969 17.3164 9.36328 17.1211 9.78516C16.9258 10.207 16.6836 10.582 16.3945 10.9102C16.1055 11.2383 15.7891 11.5 15.4453 11.6953C15.1016 11.8906 14.7031 11.9922 14.25 12C13.9766 12 13.7266 11.9336 13.5 11.8008ZM16.5117 6C16.5117 5.64844 16.4844 5.29297 16.4297 4.93359C16.375 4.57422 16.293 4.22266 16.1836 3.87891C16.0742 3.53516 15.9336 3.19922 15.7617 2.87109C15.5898 2.54297 15.3906 2.24609 15.1641 1.98047C15.0391 1.83203 14.9062 1.71484 14.7656 1.62891C14.625 1.54297 14.4531 1.5 14.25 1.5V10.5C14.4453 10.5 14.6133 10.457 14.7539 10.3711C14.8945 10.2852 15.0312 10.168 15.1641 10.0195C15.3906 9.75391 15.5859 9.46094 15.75 9.14062C15.9141 8.82031 16.0547 8.48438 16.1719 8.13281C16.2891 7.78125 16.375 7.42578 16.4297 7.06641C16.4844 6.70703 16.5117 6.35156 16.5117 6ZM10.4883 6C10.4883 6.35156 10.5156 6.70703 10.5703 7.06641C10.625 7.42578 10.707 7.77734 10.8164 8.12109C10.9258 8.46484 11.0664 8.80078 11.2383 9.12891C11.4102 9.45703 11.6094 9.75391 11.8359 10.0195C11.9609 10.168 12.0938 10.2852 12.2344 10.3711C12.375 10.457 12.5469 10.5 12.75 10.5V1.5C12.5547 1.5 12.3867 1.54297 12.2461 1.62891C12.1055 1.71484 11.9688 1.83203 11.8359 1.98047C11.6094 2.25391 11.4102 2.55078 11.2383 2.87109C11.0664 3.19141 10.9258 3.52344 10.8164 3.86719C10.707 4.21094 10.625 4.56641 10.5703 4.93359C10.5156 5.30078 10.4883 5.65625 10.4883 6Z" fill="#191C1B"/>
</svg>
